<svg xmlns="http://www.w3.org/2000/svg" width="20" height="20" viewBox="0 0 20 20">
  <path id="Instagram" d="M17.778,0H2.222A2.229,2.229,0,0,0,0,2.222V17.778A2.228,2.228,0,0,0,2.222,20H17.778A2.228,2.228,0,0,0,20,17.778V2.222A2.229,2.229,0,0,0,17.778,0Zm-7.8,16.137a6.154,6.154,0,0,0,6.153-6.154,5.9,5.9,0,0,0-.114-1.093h1.757v8.018a.767.767,0,0,1-.77.767H2.992a.767.767,0,0,1-.77-.767V8.889H3.943a5.809,5.809,0,0,0-.116,1.093,6.156,6.156,0,0,0,6.154,6.154ZM6.137,9.982A3.846,3.846,0,1,1,7.263,12.7,3.845,3.845,0,0,1,6.137,9.982ZM17.008,5.556H15.213a.771.771,0,0,1-.769-.769V2.99a.768.768,0,0,1,.768-.768h1.794a.769.769,0,0,1,.771.768v1.8A.771.771,0,0,1,17.008,5.556Z" fill="#fdedd2"/>
</svg>
