<svg xmlns="http://www.w3.org/2000/svg" width="20" height="20" viewBox="0 0 20 20">
  <path id="Phone" d="M17.857,0H2.143A2.143,2.143,0,0,0,0,2.143V17.857A2.143,2.143,0,0,0,2.143,20H17.857A2.143,2.143,0,0,0,20,17.857V2.143A2.143,2.143,0,0,0,17.857,0Zm-.732,13.722-.67,2.9a.67.67,0,0,1-.652.519A12.947,12.947,0,0,1,2.857,4.2a.7.7,0,0,1,.519-.652l2.9-.67a.813.813,0,0,1,.15-.017.726.726,0,0,1,.616.406L8.383,6.388a.8.8,0,0,1,.054.264.759.759,0,0,1-.246.518L6.5,8.554A10.353,10.353,0,0,0,11.446,13.5l1.384-1.692a.759.759,0,0,1,.518-.246.8.8,0,0,1,.264.054l3.125,1.339a.726.726,0,0,1,.406.616A.777.777,0,0,1,17.125,13.722Z" fill="#fdedd2"/>
</svg>
