<svg xmlns="http://www.w3.org/2000/svg" xmlns:xlink="http://www.w3.org/1999/xlink" width="20" height="20" viewBox="0 0 20 20">
  <defs>
    <clipPath id="clip-path">
      <rect width="20" height="20" fill="none"/>
    </clipPath>
  </defs>
  <g id="Repetição_de_grade_1" data-name="Repetição de grade 1" clip-path="url(#clip-path)">
    <g transform="translate(-890 -2717)">
      <path id="Facebook" d="M17.5,20H2.5a2.409,2.409,0,0,1-1.768-.732A2.409,2.409,0,0,1,0,17.5V2.5A2.409,2.409,0,0,1,.732.732,2.409,2.409,0,0,1,2.5,0h15a2.409,2.409,0,0,1,1.768.732A2.409,2.409,0,0,1,20,2.5v15A2.5,2.5,0,0,1,17.5,20Zm-15-3.76A1.267,1.267,0,0,0,3.75,17.5h5V15h-5a1.217,1.217,0,0,0-.879.361A1.181,1.181,0,0,0,2.5,16.24ZM16.25,9.59a.708.708,0,0,0-.361-.6A1.551,1.551,0,0,0,15,8.75H12.5V6.25a1.192,1.192,0,0,1,.371-.889A1.217,1.217,0,0,1,13.75,5H15a1.551,1.551,0,0,0,.889-.244.708.708,0,0,0,.361-.6V3.34a.708.708,0,0,0-.361-.6A1.551,1.551,0,0,0,15,2.5H13.75a4.048,4.048,0,0,0-2.91.84A4.048,4.048,0,0,0,10,6.25v2.5H8.75a1.563,1.563,0,0,0-.879.244.706.706,0,0,0-.371.6v.82a.706.706,0,0,0,.371.6,1.563,1.563,0,0,0,.879.244H10v5a1.563,1.563,0,0,0,.244.879.706.706,0,0,0,.6.371h.82a.706.706,0,0,0,.6-.371,1.563,1.563,0,0,0,.244-.879v-5H15a1.551,1.551,0,0,0,.889-.244.708.708,0,0,0,.361-.6Zm0,5.41h-2.5v2.5h2.5a1.192,1.192,0,0,0,.889-.371,1.229,1.229,0,0,0,.361-.889,1.181,1.181,0,0,0-.371-.879A1.217,1.217,0,0,0,16.25,15Z" transform="translate(890 2717)" fill="#fdedd2"/>
    </g>
  </g>
</svg>
